<?xml version="1.0" standalone="no"?><!DOCTYPE svg PUBLIC "-//W3C//DTD SVG 1.1//EN" "http://www.w3.org/Graphics/SVG/1.1/DTD/svg11.dtd"><svg t="1702910761674" class="icon" viewBox="0 0 1024 1024" version="1.1" xmlns="http://www.w3.org/2000/svg" p-id="18482" xmlns:xlink="http://www.w3.org/1999/xlink" width="48" height="48"><path d="M975.657143 96.914286l-48.457143-48.457143c-1.828571-1.828571-4.114286-2.628571-6.514286-2.628572s-4.685714 0.914286-6.514285 2.628572l-86.971429 86.971428a227.737143 227.737143 0 0 0-128.114286-39.2c-58.514286 0-117.028571 22.285714-161.714285 66.971429L420.914286 279.657143a9.177143 9.177143 0 0 0 0 12.914286L731.428571 603.085714c1.828571 1.828571 4.114286 2.628571 6.514286 2.628572 2.285714 0 4.685714-0.914286 6.514286-2.628572l116.457143-116.457143c78.742857-78.857143 88-200.8 27.771428-289.714285l86.971429-86.971429c3.542857-3.657143 3.542857-9.485714 0-13.028571zM805.828571 431.657143l-67.885714 67.885714-213.485714-213.485714 67.885714-67.885714c28.457143-28.457143 66.4-44.228571 106.742857-44.228572 40.342857 0 78.171429 15.657143 106.742857 44.228572 28.457143 28.457143 44.228571 66.4 44.228572 106.742857 0 40.342857-15.771429 78.171429-44.228572 106.742857z m-217.371428 120a9.177143 9.177143 0 0 0-12.914286 0L499.428571 627.771429 396.228571 524.571429l76.228572-76.228572c3.542857-3.542857 3.542857-9.371429 0-12.914286L430.857143 393.828571a9.177143 9.177143 0 0 0-12.914286 0L341.714286 470.057143l-49.142857-49.142857a8.971429 8.971429 0 0 0-6.514286-2.628572c-2.285714 0-4.685714 0.914286-6.514286 2.628572L163.2 537.371429c-78.742857 78.857143-88 200.8-27.771429 289.714285l-86.971428 86.971429a9.177143 9.177143 0 0 0 0 12.914286l48.457143 48.457142c1.828571 1.828571 4.114286 2.628571 6.514285 2.628572s4.685714-0.914286 6.514286-2.628572l86.971429-86.971428c38.514286 26.171429 83.314286 39.2 128.114285 39.2 58.514286 0 117.028571-22.285714 161.714286-66.971429l116.457143-116.457143c3.542857-3.542857 3.542857-9.371429 0-12.914285l-49.142857-49.142857 76.228571-76.228572c3.542857-3.542857 3.542857-9.371429 0-12.914286l-41.828571-41.371428zM431.657143 805.828571a150.08 150.08 0 0 1-106.742857 44.228572c-40.342857 0-78.171429-15.657143-106.742857-44.228572a150.08 150.08 0 0 1-44.228572-106.742857c0-40.342857 15.657143-78.171429 44.228572-106.742857l67.885714-67.885714 213.485714 213.485714-67.885714 67.885714z" p-id="18483" fill="#515151"></path></svg>